<?xml version="1.0" encoding="UTF-8"?>
<svg id="Layer_2" xmlns="http://www.w3.org/2000/svg" version="1.1" viewBox="0 0 868.3 455.9">
  <!-- Generator: Adobe Illustrator 30.0.0, SVG Export Plug-In . SVG Version: 2.1.1 Build 123)  -->
  <defs>
    <style>
      .st0 {
        fill: #fff;
      }

      .st1 {
        fill: #0aa6fb;
      }
    </style>
  </defs>
  <g id="Layer_1-2">
    <g>
      <path class="st0" d="M217.5,133.3l-87.7,144.4h131.6l-1.9,4.6-45,74.6H0L216.2,0l208.5,356.8h-77c-43.3-72.1-85.1-145.3-127.8-217.8-1-1.7-2.1-3.7-2.4-5.7h0Z"/>
      <g>
        <path class="st1" d="M584.3,308.3c-36.2,38.4-89.2,59.3-142.2,52.6l-43.1-75.1c11.5,4.6,22.9,9.7,35.2,12.1,106.7,20.5,177.7-106.5,110.5-189.6-61.1-75.6-180.7-42.4-198.8,51.4-1.9,9.7-1.1,17.2-2,26.3,0,.8-.4,3.2-1.6,3.1l-45.5-78.7C318.1,54.8,369,12.9,428,2.8c172.1-29.4,272.7,182.1,156.3,305.5h0Z"/>
        <g>
          <path class="st0" d="M862,301.8c-61.2,70.3-166.9,82.6-243.2,29.1-2.7-1.9-19-14.2-19.4-15.9-.5-2.1,7.9-10.8,9.7-13.2,10.3-13.7,18.8-28.1,25.9-43.7,42,52.9,120.5,56,169,9.9,2.4-2.3,13.3-15.6,14.3-15.8,3.1-.8,42,37.1,48.5,40.7,2.1,2.2-2.9,7-4.8,9.1Z"/>
          <path class="st0" d="M868,72.2c-16.1,13.7-32,27.7-48.3,41.2-2.6.4-6.4-6.4-8.4-8.5-43.3-46.1-113-51-160.8-8.6-3.9,3.4-9.7,11.6-12.9,13.8-.7.5-.9,1.2-2.2.8-4.5-14.1-12.1-27.9-20.5-40.2-3.2-4.7-8.7-10.2-11.2-14.6-.6-1-1.2-1.6-.6-2.8.8-1.7,9.5-9.1,11.6-10.8,71.8-58.9,187.1-50.1,248.1,20.2,2.1,2.4,6.6,6.6,5.2,9.5Z"/>
        </g>
      </g>
    </g>
    <g>
      <path class="st0" d="M24.8,412.7h7.9v8.2h-2.7l-10.6,34.2h-9.3l14.8-42.5h0ZM20.2,438.2h19.8l2.2,6.6h-24.2s2.2-6.6,2.2-6.6ZM30.2,421v-8.2h5.2l14.8,42.5h-9.4l-10.6-34.2h0Z"/>
      <path class="st0" d="M86.5,454.4c-2.5-1-4.7-2.5-6.4-4.4-1.8-1.9-3.1-4.2-4.1-7s-1.4-5.8-1.4-9.3h0c0-4.6.8-8.5,2.5-11.7s4-5.8,7-7.5c3-1.8,6.6-2.6,10.8-2.6s6.4.6,9,1.8,4.7,2.9,6.4,5,2.7,4.5,3.2,7.1v.4c0,0-8.9,0-8.9,0v-.3c-.8-2-2-3.6-3.6-4.8s-3.7-1.7-6.1-1.7-4.3.6-6,1.7-3,2.7-3.9,4.9-1.3,4.7-1.3,7.7h0c0,2.3.3,4.4.8,6.2s1.3,3.4,2.3,4.6c1,1.3,2.2,2.2,3.7,2.9s3,1,4.8,1,3.6-.4,5.1-1.1,2.6-1.7,3.5-3,1.3-2.8,1.4-4.6v-.6s-9.7,0-9.7,0v-6.6h18.4v4.9c0,2.9-.4,5.5-1.3,7.8-.8,2.3-2.1,4.2-3.7,5.9s-3.6,2.8-5.9,3.7-5,1.3-7.9,1.3-6-.5-8.6-1.5h0Z"/>
      <path class="st0" d="M143.3,412.7h28.1v7.3h-19.2v10.2h18.2v7h-18.2v10.7h19.2v7.3h-28.1v-42.5h0Z"/>
      <path class="st0" d="M201.4,412.7h7.8l23.1,33.2-7.4-5.6h3.7v-27.6h8.9v42.5h-7.7l-23.1-33.4,7.4,5.6h-3.7v27.8h-8.9v-42.5h0Z"/>
      <path class="st0" d="M278.1,420h-12.3v-7.3h33.5v7.3h-12.3v35.1h-8.9v-35.1h0Z"/>
    </g>
    <g>
      <path class="st0" d="M535,453.3c-3-1.8-5.4-4.3-7-7.6s-2.5-7.2-2.5-11.8h0c0-4.6.8-8.5,2.5-11.8,1.7-3.3,4-5.8,7-7.5s6.6-2.6,10.8-2.6,6.5.7,9.2,2,4.8,3.2,6.5,5.5,2.6,5,2.9,8v.3s-8.6,0-8.6,0v-.5c-.5-1.6-1-2.9-1.9-4.1s-2-2.1-3.3-2.7-2.9-1-4.7-1-4.2.6-5.9,1.8-3,2.8-3.9,5c-.9,2.1-1.4,4.7-1.4,7.7h0c0,3,.5,5.6,1.4,7.8s2.2,3.8,3.9,5,3.7,1.8,5.9,1.8,3.2-.3,4.6-.9,2.5-1.5,3.4-2.7c.9-1.2,1.5-2.6,1.9-4.3v-.3h8.7v.3c-.3,3-1.3,5.7-2.9,8s-3.8,4.2-6.5,5.5c-2.7,1.3-5.8,2-9.2,2s-7.7-.9-10.8-2.6h0Z"/>
      <path class="st0" d="M609.3,412.7h-10.5l-14.8,42.5h9.3l3.2-10.3h15l3.2,10.3h9.4l-14.8-42.5h0ZM598.7,438.2l5.4-17.3h.2l5.3,17.3h-10.9,0Z"/>
      <polygon class="st0" points="691.8 412.7 691.8 455.2 683.9 455.2 683.9 426.5 683.7 426.5 672.2 455.2 666.6 455.2 655.2 426.5 654.9 426.5 654.9 455.2 647 455.2 647 412.7 657.2 412.7 669.3 443.2 669.5 443.2 681.5 412.7 691.8 412.7"/>
      <path class="st0" d="M717.3,412.7h28.2v7.3h-19.2v10.2h18.2v7h-18.2v10.7h19.2v7.3h-28.2v-42.5h0Z"/>
      <path class="st0" d="M770.4,412.7h17.5c3.2,0,5.9.5,8.2,1.6,2.3,1.1,4,2.6,5.2,4.7,1.2,2,1.8,4.5,1.8,7.3h0c0,2.9-.7,5.4-2.1,7.5-1.4,2.2-3.2,3.7-5.6,4.6l9,16.7h-10.1l-7.9-15.4h-7.1v15.4h-8.9v-42.5ZM787,433c2.2,0,3.9-.6,5.2-1.8,1.3-1.2,1.9-2.8,1.9-4.9h0c0-2.1-.7-3.7-2-4.9-1.3-1.2-3-1.8-5.2-1.8h-7.6v13.4h7.7Z"/>
      <path class="st0" d="M850,412.7h-10.5l-14.8,42.5h9.3l3.2-10.3h15l3.2,10.3h9.4l-14.8-42.5h0ZM839.3,438.2l5.4-17.3h.2l5.3,17.3h-10.9,0Z"/>
    </g>
    <g>
      <path class="st1" d="M365.9,453.3c-3.1-1.8-5.4-4.3-7.1-7.6-1.7-3.3-2.5-7.2-2.5-11.7h0c0-4.6.8-8.5,2.5-11.8s4-5.8,7.1-7.6,6.7-2.7,10.9-2.7,7.8.9,10.9,2.7,5.4,4.3,7.1,7.6,2.5,7.2,2.5,11.7h0c0,4.6-.8,8.5-2.5,11.8s-4,5.8-7.1,7.6-6.7,2.7-10.9,2.7-7.8-.9-10.9-2.7h0ZM382.9,446.6c1.7-1.2,3-2.9,3.9-5,.9-2.2,1.4-4.7,1.4-7.6h0c0-3-.5-5.6-1.4-7.7s-2.2-3.8-4-5c-1.7-1.2-3.7-1.8-6-1.8s-4.3.6-6,1.8-3,2.8-4,5c-.9,2.1-1.4,4.7-1.4,7.7h0c0,3,.5,5.6,1.4,7.7s2.2,3.8,4,5c1.7,1.2,3.7,1.8,6.1,1.8s4.4-.6,6.1-1.8h0Z"/>
      <path class="st1" d="M426.5,412.7h7.8l23.1,33.2-7.5-5.6h3.7v-27.6h8.9v42.5h-7.7l-23.1-33.4,7.5,5.6h-3.7v27.8h-8.9v-42.5h0Z"/>
    </g>
  </g>
</svg>