<?xml version="1.0" encoding="UTF-8"?>
<svg id="Layer_2" data-name="Layer 2" xmlns="http://www.w3.org/2000/svg" viewBox="0 0 868.26 455.93">
  <defs>
    <style>
      .cls-1 {
        fill: #020202;
      }

      .cls-2 {
        fill: #0aa6fb;
      }
    </style>
  </defs>
  <g id="Layer_1-2" data-name="Layer 1">
    <g>
      <path class="cls-1" d="M217.52,133.28l-87.69,144.44h131.55l-1.9,4.56-44.96,74.55H0L216.25,0l208.49,356.83h-76.95c-43.32-72.06-85.1-145.3-127.83-217.82-1.02-1.74-2.06-3.73-2.44-5.73Z"/>
      <g>
        <path class="cls-2" d="M584.31,308.32c-36.2,38.4-89.17,59.3-142.2,52.63l-43.14-75.07c11.51,4.62,22.87,9.72,35.19,12.09,106.68,20.54,177.73-106.5,110.54-189.64-61.06-75.55-180.69-42.36-198.81,51.42-1.86,9.66-1.08,17.23-2.05,26.33-.09.82-.38,3.23-1.63,3.08l-45.5-78.65C318.06,54.76,368.98,12.92,428,2.83c172.06-29.39,272.65,182.07,156.31,305.49Z"/>
        <g>
          <path class="cls-1" d="M861.97,301.81c-61.17,70.34-166.88,82.58-243.18,29.06-2.73-1.91-18.98-14.2-19.42-15.92-.54-2.13,7.91-10.83,9.71-13.24,10.26-13.72,18.78-28.13,25.89-43.74,41.99,52.85,120.45,56.05,168.96,9.88,2.43-2.31,13.32-15.56,14.35-15.83,3.1-.79,42.05,37.05,48.47,40.7,2.11,2.24-2.92,6.95-4.78,9.09Z"/>
          <path class="cls-1" d="M867.98,72.21c-16.08,13.73-32.01,27.72-48.35,41.18-2.58.37-6.4-6.38-8.39-8.5-43.31-46.11-112.97-50.99-160.82-8.61-3.86,3.42-9.72,11.62-12.86,13.79-.73.51-.86,1.2-2.15.85-4.51-14.14-12.14-27.88-20.46-40.17-3.16-4.68-8.74-10.25-11.25-14.56-.58-.99-1.19-1.64-.59-2.85.83-1.69,9.53-9.06,11.64-10.79,71.8-58.86,187.15-50.14,248.08,20.21,2.06,2.37,6.59,6.57,5.15,9.45Z"/>
        </g>
      </g>
    </g>
    <g>
      <path d="M24.83,412.71h7.86v8.24h-2.71l-10.63,34.24h-9.33l14.81-42.48ZM20.18,438.23h19.81l2.18,6.65h-24.17l2.18-6.65ZM30.16,420.95v-8.24h5.15l14.81,42.48h-9.36l-10.6-34.24Z"/>
      <path d="M86.52,454.43c-2.52-1-4.67-2.45-6.45-4.36-1.78-1.9-3.14-4.22-4.08-6.96-.94-2.74-1.41-5.83-1.41-9.29v-.03c0-4.55.82-8.45,2.47-11.7,1.65-3.25,3.99-5.75,7.04-7.49,3.04-1.75,6.63-2.62,10.78-2.62,3.42,0,6.43.61,9.04,1.83,2.61,1.22,4.73,2.87,6.37,4.96,1.64,2.09,2.69,4.47,3.17,7.14l.09.44h-8.95l-.09-.32c-.71-2.04-1.88-3.64-3.53-4.78s-3.67-1.72-6.06-1.72-4.34.56-6.02,1.68c-1.68,1.12-2.96,2.74-3.86,4.86s-1.34,4.68-1.34,7.68v.03c0,2.28.26,4.32.79,6.14.53,1.82,1.3,3.35,2.31,4.61,1.01,1.26,2.23,2.22,3.65,2.89,1.42.67,3.02,1,4.78,1,1.92,0,3.62-.36,5.09-1.08,1.47-.72,2.64-1.73,3.5-3.03.86-1.3,1.32-2.83,1.38-4.58l.03-.59h-9.69v-6.65h18.37v4.89c0,2.89-.43,5.48-1.28,7.77-.85,2.3-2.09,4.25-3.71,5.86-1.62,1.61-3.6,2.84-5.93,3.68s-4.98,1.27-7.92,1.27c-3.18,0-6.03-.5-8.55-1.5Z"/>
      <path d="M143.29,412.71h28.15v7.33h-19.25v10.19h18.17v6.98h-18.17v10.66h19.25v7.33h-28.15v-42.48Z"/>
      <path d="M201.37,412.71h7.77l23.08,33.24-7.45-5.62h3.74v-27.62h8.86v42.48h-7.71l-23.14-33.42,7.45,5.62h-3.74v27.79h-8.86v-42.48Z"/>
      <path d="M278.12,420.04h-12.31v-7.33h33.5v7.33h-12.31v35.15h-8.89v-35.15Z"/>
    </g>
    <g>
      <path d="M534.98,453.28c-3.03-1.77-5.37-4.29-7.02-7.57-1.65-3.28-2.47-7.2-2.47-11.78v-.03c0-4.57.82-8.49,2.47-11.76,1.65-3.27,3.99-5.78,7.02-7.54,3.03-1.76,6.62-2.63,10.76-2.63,3.43,0,6.5.67,9.19,2,2.69,1.33,4.85,3.17,6.48,5.51s2.58,5,2.86,8.01l.03.29h-8.68l-.12-.5c-.33-1.57-.93-2.93-1.79-4.09-.86-1.16-1.96-2.06-3.3-2.71s-2.89-.97-4.65-.97c-2.28,0-4.25.58-5.92,1.75-1.67,1.17-2.96,2.82-3.87,4.96-.91,2.14-1.37,4.69-1.37,7.66v.03c0,2.98.46,5.56,1.37,7.73s2.21,3.84,3.89,5,3.65,1.75,5.9,1.75c1.71,0,3.23-.31,4.56-.94,1.33-.63,2.45-1.54,3.36-2.72.9-1.19,1.54-2.62,1.91-4.31l.06-.29h8.68l-.03.32c-.27,3-1.23,5.67-2.87,8.01-1.64,2.34-3.8,4.17-6.49,5.49-2.69,1.32-5.75,1.99-9.19,1.99-4.14,0-7.73-.88-10.76-2.65Z"/>
      <path d="M609.35,412.71h-10.48l-14.81,42.48h9.33l3.2-10.3h15.02l3.19,10.3h9.36l-14.81-42.48ZM598.66,438.23l5.36-17.28h.18l5.35,17.28h-10.89Z"/>
      <polygon points="691.84 412.71 691.84 455.19 683.89 455.19 683.89 426.49 683.66 426.49 672.2 455.19 666.61 455.19 655.15 426.49 654.89 426.49 654.89 455.19 646.97 455.19 646.97 412.71 657.24 412.71 669.32 443.24 669.49 443.24 681.53 412.71 691.84 412.71"/>
      <path d="M717.35,412.71h28.15v7.33h-19.25v10.19h18.17v6.98h-18.17v10.66h19.25v7.33h-28.15v-42.48Z"/>
      <path d="M770.37,412.71h17.55c3.18,0,5.9.54,8.17,1.63,2.27,1.09,4,2.65,5.21,4.67,1.21,2.02,1.81,4.46,1.81,7.3v.06c0,2.81-.69,5.29-2.08,7.46-1.38,2.17-3.25,3.71-5.61,4.64l8.95,16.72h-10.1l-7.89-15.37h-7.12v15.37h-8.89v-42.48ZM786.95,433.05c2.2,0,3.93-.59,5.18-1.77,1.26-1.18,1.88-2.81,1.88-4.89v-.06c0-2.04-.65-3.66-1.96-4.86-1.3-1.2-3.05-1.8-5.22-1.8h-7.57v13.37h7.68Z"/>
      <path d="M850,412.71h-10.48l-14.81,42.48h9.33l3.2-10.3h15.02l3.19,10.3h9.36l-14.81-42.48ZM839.31,438.23l5.36-17.28h.18l5.35,17.28h-10.89Z"/>
    </g>
    <g>
      <path class="cls-2" d="M365.86,453.26c-3.07-1.78-5.44-4.31-7.11-7.6-1.67-3.29-2.5-7.19-2.5-11.7v-.06c0-4.51.84-8.41,2.52-11.69s4.05-5.8,7.12-7.58,6.7-2.67,10.88-2.67,7.83.89,10.89,2.68,5.43,4.31,7.1,7.58c1.67,3.27,2.5,7.16,2.5,11.67v.06c0,4.51-.83,8.41-2.5,11.69-1.67,3.28-4.03,5.81-7.08,7.6-3.05,1.79-6.69,2.68-10.91,2.68s-7.84-.89-10.91-2.67ZM382.85,446.61c1.7-1.19,3.01-2.86,3.93-5.02.92-2.16,1.38-4.7,1.38-7.62v-.06c0-2.94-.47-5.5-1.4-7.66-.93-2.16-2.25-3.82-3.96-4.99-1.71-1.17-3.72-1.75-6.04-1.75s-4.33.58-6.05,1.75c-1.72,1.17-3.04,2.83-3.97,4.98-.93,2.15-1.4,4.71-1.4,7.67v.06c0,2.94.47,5.5,1.4,7.66.93,2.16,2.25,3.83,3.96,5,1.71,1.18,3.73,1.77,6.06,1.77s4.38-.59,6.08-1.78Z"/>
      <path class="cls-2" d="M426.49,412.71h7.77l23.08,33.24-7.45-5.62h3.74v-27.62h8.86v42.48h-7.71l-23.14-33.42,7.45,5.62h-3.74v27.79h-8.86v-42.48Z"/>
    </g>
  </g>
</svg>